<?xml version="1.0" encoding="UTF-8"?>
<svg width="48px" height="45px" viewBox="0 0 48 45" version="1.1" xmlns="http://www.w3.org/2000/svg" xmlns:xlink="http://www.w3.org/1999/xlink">
    <!-- Generator: Sketch 51.2 (57519) - http://www.bohemiancoding.com/sketch -->
    <title>STIX/black/assessments</title>
    <desc>Created with Sketch.</desc>
    <defs></defs>
    <g id="STIX/black/assessments" stroke="none" stroke-width="1" fill="none" fill-rule="evenodd">
        <g id="Page-1" transform="translate(2.000000, 10.000000)" fill="#231F20">
            <path d="M34.9986,4.3676 L33.3736,6.8206 C37.4286,9.9346 40.0676,14.5686 40.6166,19.6546 L29.4056,19.6546 C29.5766,20.2896 29.6766,20.9556 29.6766,21.6446 C29.6766,21.9576 29.6516,22.2636 29.6156,22.5656 L43.6366,22.5656 C43.8996,15.9236 41.1176,8.9226 34.9986,4.3676" id="Fill-1"></path>
            <path d="M28.711,15.5771 L23.368,17.5301 C22.636,17.2941 21.858,17.2561 21.115,17.4201 C18.782,17.9331 17.3,20.2501 17.815,22.5841 C18.328,24.9171 20.645,26.3981 22.979,25.8841 C25.245,25.3851 26.7,23.2221 26.316,20.9391 L28.955,15.8541 C29.03,15.6571 28.871,15.5181 28.711,15.5771" id="Fill-3"></path>
            <path d="M22.0396,14.0083 C22.8776,14.0083 23.6826,14.1483 24.4376,14.3983 L32.2456,2.6173 C24.6196,-1.4967 16.9456,-0.0127 12.5966,2.1463 L19.3646,14.4993 C20.1986,14.1873 21.0966,14.0083 22.0396,14.0083" id="Fill-5"></path>
            <path d="M9.7993,3.8291 C1.6373,9.4441 0.1623,17.9571 0.3633,22.5651 L14.4633,22.5651 C14.4263,22.2631 14.4033,21.9571 14.4033,21.6451 C14.4033,19.5491 15.2483,17.6511 16.6153,16.2711 L9.7993,3.8291 Z" id="Fill-7"></path>
        </g>
    </g>
</svg>