<?xml version="1.0" encoding="UTF-8"?>
<svg width="48px" height="45px" viewBox="0 0 48 45" version="1.1" xmlns="http://www.w3.org/2000/svg" xmlns:xlink="http://www.w3.org/1999/xlink">
    <!-- Generator: Sketch 51.2 (57519) - http://www.bohemiancoding.com/sketch -->
    <title>STIX/black/attack pattern</title>
    <desc>Created with Sketch.</desc>
    <defs></defs>
    <g id="STIX/black/attack-pattern" stroke="none" stroke-width="1" fill="none" fill-rule="evenodd">
        <g id="Page-1" transform="translate(12.000000, 5.000000)" fill="#231F20">
            <polygon id="Fill-1" points="4.427 35.255 23.631 35.255 23.631 29.2 4.427 29.2"></polygon>
            <path d="M8.523,6.0948 C8.523,5.4168 9.073,4.8668 9.751,4.8668 C10.428,4.8668 10.978,5.4168 10.978,6.0948 C10.978,6.7728 10.428,7.3228 9.751,7.3228 C9.073,7.3228 8.523,6.7728 8.523,6.0948 M0.431,10.7068 L2.416,14.9038 C3.135,14.3808 4.313,13.5278 4.961,13.0588 C5.795,12.4538 6.727,12.3828 7.699,12.5588 C8.26,12.6608 8.813,12.8088 9.375,12.9018 C11.143,13.1948 12.323,12.2838 12.517,10.4988 C12.529,10.3858 12.558,10.2748 12.579,10.1618 C12.62,10.1618 12.661,10.1618 12.702,10.1608 C12.724,10.3048 12.764,10.4488 12.766,10.5928 C12.793,12.4468 12.195,14.1308 11.316,15.7248 C10.23,17.6958 7.484,20.0248 5.562,21.5548 L8.523,27.8148 L20.146,27.8148 C21.475,25.4258 22.383,22.5838 22.946,19.9278 C23.44,17.6008 23.698,15.2468 23.615,12.8658 C23.522,10.1658 22.966,7.5828 21.36,5.3488 C20.996,4.8418 20.598,4.3588 20.165,3.9088 C19.288,2.9978 18.262,2.2318 17.121,1.6828 C16.545,1.4078 15.941,1.1878 15.322,1.0328 C13.77,0.6448 12.146,0.7618 10.56,0.7618 L7.842,0.7618 L6.583,0.7618 C6.988,1.1458 7.55,1.6468 7.872,1.9668 C8.037,2.1288 8.033,2.2608 7.861,2.4638 C7.454,2.9458 7.079,3.4578 6.726,3.9808 C5.427,5.9078 2.975,8.2908 1.056,9.6038 C0.353,10.0848 0.286,10.3728 0.431,10.7068" id="Fill-2"></path>
        </g>
    </g>
</svg>