<?xml version="1.0" encoding="UTF-8"?>
<svg width="48px" height="45px" viewBox="0 0 48 45" version="1.1" xmlns="http://www.w3.org/2000/svg" xmlns:xlink="http://www.w3.org/1999/xlink">
    <!-- Generator: Sketch 51.2 (57519) - http://www.bohemiancoding.com/sketch -->
    <title>STIX/black/campaign</title>
    <desc>Created with Sketch.</desc>
    <defs></defs>
    <g id="STIX/black/campaign" stroke="none" stroke-width="1" fill="none" fill-rule="evenodd">
        <g id="Page-1" transform="translate(6.000000, 6.000000)" fill="#231F20">
            <path d="M18,11.4572 C20.938,11.4572 23.32,9.0752 23.32,6.1372 C23.32,3.1982 20.938,0.8162 18,0.8162 C15.062,0.8162 12.68,3.1982 12.68,6.1372 C12.68,9.0752 15.062,11.4572 18,11.4572" id="Fill-1"></path>
            <path d="M17.0186,16.778 C17.0186,13.84 14.6366,11.457 11.6976,11.457 C8.7596,11.457 6.3776,13.84 6.3776,16.778 C6.3776,19.716 8.7596,22.098 11.6976,22.098 C14.6366,22.098 17.0186,19.716 17.0186,16.778" id="Fill-3"></path>
            <path d="M29.6226,16.778 C29.6226,13.84 27.2406,11.457 24.3026,11.457 C21.3636,11.457 18.9816,13.84 18.9816,16.778 C18.9816,19.716 21.3636,22.098 24.3026,22.098 C27.2406,22.098 29.6226,19.716 29.6226,16.778" id="Fill-5"></path>
            <path d="M5.396,22.5426 C2.458,22.5426 0.075,24.9246 0.075,27.8636 C0.075,30.8016 2.458,33.1836 5.396,33.1836 C8.334,33.1836 10.716,30.8016 10.716,27.8636 C10.716,24.9246 8.334,22.5426 5.396,22.5426" id="Fill-7"></path>
            <path d="M18,22.5426 C15.062,22.5426 12.68,24.9246 12.68,27.8636 C12.68,30.8016 15.062,33.1836 18,33.1836 C20.938,33.1836 23.32,30.8016 23.32,27.8636 C23.32,24.9246 20.938,22.5426 18,22.5426" id="Fill-9"></path>
            <path d="M30.604,22.5426 C27.666,22.5426 25.284,24.9246 25.284,27.8636 C25.284,30.8016 27.666,33.1836 30.604,33.1836 C33.542,33.1836 35.925,30.8016 35.925,27.8636 C35.925,24.9246 33.542,22.5426 30.604,22.5426" id="Fill-11"></path>
        </g>
    </g>
</svg>