<?xml version="1.0" encoding="UTF-8"?>
<svg width="48px" height="45px" viewBox="0 0 48 45" version="1.1" xmlns="http://www.w3.org/2000/svg" xmlns:xlink="http://www.w3.org/1999/xlink">
    <!-- Generator: Sketch 51.2 (57519) - http://www.bohemiancoding.com/sketch -->
    <title>STIX/black/coa</title>
    <desc>Created with Sketch.</desc>
    <defs></defs>
    <g id="STIX/black/coa" stroke="none" stroke-width="1" fill="none" fill-rule="evenodd">
        <g id="Page-1" transform="translate(8.000000, 9.000000)" fill="#231F20">
            <path d="M22.8079,18.4985 L18.0069,18.4985 L18.0069,23.2995 L14.1629,23.2995 L14.1629,18.4985 L9.3619,18.4985 L9.3619,14.6555 L14.1629,14.6555 L14.1629,9.8525 L18.0069,9.8525 L18.0069,14.6555 L22.8079,14.6555 L22.8079,18.4985 Z M12.7689,3.3315 C12.7689,2.9985 13.0509,2.7165 13.3839,2.7165 L18.7849,2.7165 C19.1189,2.7165 19.4009,2.9985 19.4009,3.3315 L19.4009,4.7655 L12.7689,4.7655 L12.7689,3.3315 Z M29.6489,4.7655 L22.1169,4.7655 L22.1169,3.3315 C22.1169,1.4955 20.6219,-0.0005 18.7849,-0.0005 L13.3839,-0.0005 C11.5469,-0.0005 10.0529,1.4955 10.0529,3.3315 L10.0529,4.7655 L2.5209,4.7655 C1.1289,4.7655 -0.0001,5.8935 -0.0001,7.2855 L-0.0001,9.0575 L-0.0001,23.6665 L-0.0001,25.3425 C-0.0001,26.7345 1.1289,27.8625 2.5209,27.8625 L4.1959,27.8625 L27.9739,27.8625 L29.6489,27.8625 C31.0409,27.8625 32.1689,26.7345 32.1689,25.3425 L32.1689,23.6665 L32.1689,9.0575 L32.1689,7.2855 C32.1689,5.8935 31.0409,4.7655 29.6489,4.7655 Z" id="Fill-1"></path>
        </g>
    </g>
</svg>