<?xml version="1.0" encoding="UTF-8"?>
<svg width="48px" height="45px" viewBox="0 0 48 45" version="1.1" xmlns="http://www.w3.org/2000/svg" xmlns:xlink="http://www.w3.org/1999/xlink">
    <!-- Generator: Sketch 51.2 (57519) - http://www.bohemiancoding.com/sketch -->
    <title>STIX/black/indicator</title>
    <desc>Created with Sketch.</desc>
    <defs></defs>
    <g id="STIX/black/indicator" stroke="none" stroke-width="1" fill="none" fill-rule="evenodd">
        <g id="Page-1" transform="translate(3.000000, 6.000000)" fill="#231F20">
            <polygon id="Fill-1" points="33.018 33.837 40.063 33.837 40.063 12.996 33.018 12.996"></polygon>
            <polygon id="Fill-2" points="13.762 33.895 20.807 33.895 20.807 21.86 13.762 21.86"></polygon>
            <g id="Group-7">
                <path d="M27.9107,3.3087 L25.6887,3.3087 C26.9327,5.1677 27.6597,7.4047 27.6597,9.8157 C27.6597,13.4087 26.0467,16.6117 23.5077,18.7557 L23.5077,18.7587 L23.5077,33.8367 L30.5527,33.8367 L30.5527,18.7587 L30.5527,3.3087 L27.9107,3.3087 Z" id="Fill-3"></path>
                <path d="M9.5894,9.816 C9.5894,6.289 12.4364,3.442 15.9624,3.442 C19.4894,3.442 22.3364,6.289 22.3364,9.816 C22.3364,13.342 19.4894,16.189 15.9624,16.189 C12.4364,16.189 9.5894,13.342 9.5894,9.816 Z M0.3974,23.271 L2.5074,25.381 L9.5894,18.314 L9.5894,17.195 L9.9714,16.798 C11.5864,18.186 13.6824,19.022 15.9624,19.022 C21.0474,19.022 25.1684,14.9 25.1684,9.816 C25.1684,4.732 21.0474,0.61 15.9624,0.61 C10.8784,0.61 6.7564,4.732 6.7564,9.816 C6.7564,12.096 7.5924,14.192 8.9804,15.807 L8.5834,16.189 L7.4644,16.189 L0.3974,23.271 Z" id="Fill-5"></path>
            </g>
        </g>
    </g>
</svg>