<?xml version="1.0" encoding="UTF-8"?>
<svg width="48px" height="45px" viewBox="0 0 48 45" version="1.1" xmlns="http://www.w3.org/2000/svg" xmlns:xlink="http://www.w3.org/1999/xlink">
    <!-- Generator: Sketch 51.2 (57519) - http://www.bohemiancoding.com/sketch -->
    <title>STIX/black/intrusion set</title>
    <desc>Created with Sketch.</desc>
    <defs></defs>
    <g id="STIX/black/intrusion-set" stroke="none" stroke-width="1" fill="none" fill-rule="evenodd">
        <g id="Page-1" transform="translate(2.000000, 7.000000)" fill="#231F20">
            <path d="M-0.0001,24.0226 L-0.0001,31.9536 L9.1379,31.9536 L9.1379,24.0226 C9.1379,20.4436 11.7819,17.8356 15.2739,16.0656 C9.7789,16.2726 -0.0001,18.9306 -0.0001,24.0226" id="Fill-1"></path>
            <path d="M15.954,14.587 C17.394,14.587 18.733,14.163 19.863,13.441 C18.581,11.733 17.821,9.611 17.821,7.316 C17.821,5.021 18.591,2.907 19.873,1.199 C18.741,0.473 17.398,0.046 15.954,0.046 C11.936,0.046 8.683,3.3 8.683,7.316 C8.683,11.334 11.936,14.587 15.954,14.587" id="Fill-3"></path>
            <path d="M28.0468,14.587 C32.0638,14.587 35.3168,11.334 35.3168,7.316 C35.3168,3.3 32.0638,0.046 28.0468,0.046 C24.0288,0.046 20.7758,3.3 20.7758,7.316 C20.7758,11.334 24.0288,14.587 28.0468,14.587" id="Fill-5"></path>
            <path d="M33.2411,27.4464 L31.1511,29.5354 L28.0461,26.4304 L24.9401,29.5354 L22.8511,27.4464 L25.9571,24.3414 L22.8511,21.2354 L24.9401,19.1464 L28.0461,22.2514 L31.1511,19.1464 L33.2411,21.2354 L30.1361,24.3414 L33.2411,27.4464 Z M28.0471,16.0454 C22.7211,16.0454 12.0931,18.7174 12.0931,24.0224 L12.0931,31.9534 L44.0001,31.9534 L44.0001,24.0224 C44.0001,18.7174 33.3711,16.0454 28.0471,16.0454 Z" id="Fill-7"></path>
        </g>
    </g>
</svg>