<?xml version="1.0" encoding="UTF-8"?>
<svg width="48px" height="45px" viewBox="0 0 48 45" version="1.1" xmlns="http://www.w3.org/2000/svg" xmlns:xlink="http://www.w3.org/1999/xlink">
    <!-- Generator: Sketch 51.2 (57519) - http://www.bohemiancoding.com/sketch -->
    <title>STIX/black/report</title>
    <desc>Created with Sketch.</desc>
    <defs>
        <polygon id="path-1" points="0.0004 0.0004 27.0004 0.0004 27.0004 30.8802 0.0004 30.8802"></polygon>
    </defs>
    <g id="STIX/black/report" stroke="none" stroke-width="1" fill="none" fill-rule="evenodd">
        <g id="Page-1" transform="translate(11.000000, 7.000000)">
            <mask id="mask-2" fill="white">
                <use xlink:href="#path-1"></use>
            </mask>
            <g id="Clip-2"></g>
            <path d="M18.3274,9.9842 C17.9604,9.9842 17.6454,9.8272 17.4354,9.6172 L17.3834,9.5652 C17.1744,9.3552 17.0684,9.0402 17.0684,8.6732 L17.0684,2.9062 L24.1464,9.9842 L18.3274,9.9842 Z M13.5264,27.0532 C9.5314,27.0532 6.2084,24.0732 5.6324,20.2012 L15.6194,20.2012 L10.8014,11.5842 C11.6514,11.2882 12.5404,11.1142 13.4734,11.1142 C17.9314,11.1142 21.4954,14.6802 21.4954,19.0842 C21.4954,23.4882 17.9314,27.0532 13.5264,27.0532 Z M8.9004,12.6612 L11.8954,18.0162 L5.6724,18.0162 C6.0134,15.7972 7.2064,13.9062 8.9004,12.6612 Z M26.6344,8.9132 L18.0884,0.3672 C17.8784,0.1572 17.5634,0.0002 17.2494,0.0002 L3.1984,0.0002 C2.3064,0.0002 1.5204,0.3672 0.9434,0.9432 C0.3674,1.5202 0.0004,2.3072 0.0004,3.1982 L0.0004,27.6822 C0.0004,28.5732 0.3674,29.3602 0.9434,29.9372 C1.5204,30.5132 2.3064,30.8802 3.1984,30.8802 L23.8544,30.8802 C24.6934,30.8802 25.4804,30.5132 26.0564,29.9892 C26.6344,29.4122 27.0004,28.6262 27.0004,27.7342 L27.0004,9.8042 C27.0004,9.4892 26.8954,9.1752 26.6344,8.9132 Z" id="Fill-1" fill="#231F20" mask="url(#mask-2)"></path>
        </g>
    </g>
</svg>