<?xml version="1.0" encoding="UTF-8"?>
<svg width="48px" height="45px" viewBox="0 0 48 45" version="1.1" xmlns="http://www.w3.org/2000/svg" xmlns:xlink="http://www.w3.org/1999/xlink">
    <!-- Generator: Sketch 51.2 (57519) - http://www.bohemiancoding.com/sketch -->
    <title>STIX/black/sensor</title>
    <desc>Created with Sketch.</desc>
    <defs></defs>
    <g id="STIX/black/sensor" stroke="none" stroke-width="1" fill="none" fill-rule="evenodd">
        <g id="Page-1" transform="translate(2.000000, 7.000000)" fill="#231F20">
            <path d="M27.1376,0.9623 C20.7026,0.9623 15.2156,5.0323 13.0736,10.7273 L13.8326,12.8643 L15.2076,12.8643 C16.6016,7.5713 21.4136,3.6503 27.1376,3.6503 C33.9476,3.6503 39.4866,9.1913 39.4866,16.0003 C39.4866,22.8103 33.9476,28.3493 27.1376,28.3493 C21.4136,28.3493 16.6016,24.4293 15.2076,19.1373 L12.4346,19.1373 C13.8816,25.9273 19.9216,31.0373 27.1376,31.0373 C35.4296,31.0373 42.1746,24.2923 42.1746,16.0003 C42.1746,7.7093 35.4296,0.9623 27.1376,0.9623" id="Fill-1"></path>
            <path d="M27.1376,23.3392 C24.2136,23.3392 21.6916,21.6162 20.5116,19.1372 L17.6186,19.1372 C18.9396,23.1332 22.7036,26.0272 27.1376,26.0272 C32.6676,26.0272 37.1656,21.5292 37.1656,16.0002 C37.1656,10.4702 32.6676,5.9722 27.1376,5.9722 C22.7036,5.9722 18.9396,8.8672 17.6186,12.8642 L20.5116,12.8642 C21.6906,10.3832 24.2136,8.6612 27.1376,8.6612 C31.1856,8.6612 34.4776,11.9532 34.4776,16.0002 C34.4776,20.0472 31.1856,23.3392 27.1376,23.3392" id="Fill-3"></path>
            <path d="M27.1376,20.9403 C29.8666,20.9403 32.0776,18.7283 32.0776,16.0003 C32.0776,13.2713 29.8666,11.0603 27.1376,11.0603 C24.8756,11.0603 22.9736,12.5823 22.3876,14.6563 L12.5676,14.6563 L10.7226,9.4643 C10.5186,8.8913 9.9426,8.5263 9.3506,8.5743 C8.7436,8.6213 8.2456,9.0693 8.1346,9.6673 L6.5636,18.0743 L5.6946,15.5613 C5.5076,15.0193 4.9966,14.6563 4.4236,14.6563 L0.7506,14.6563 L0.7506,17.3443 L3.4666,17.3443 L5.6826,23.7503 C5.8706,24.2943 6.3836,24.6553 6.9516,24.6553 C6.9856,24.6553 7.0186,24.6543 7.0526,24.6513 C7.6606,24.6063 8.1616,24.1573 8.2746,23.5583 L9.8616,15.0663 L10.3526,16.4503 C10.5426,16.9863 11.0506,17.3443 11.6186,17.3443 L22.3876,17.3443 C22.9736,19.4193 24.8756,20.9403 27.1376,20.9403" id="Fill-5"></path>
        </g>
    </g>
</svg>