<?xml version="1.0" encoding="UTF-8"?>
<svg width="48px" height="45px" viewBox="0 0 48 45" version="1.1" xmlns="http://www.w3.org/2000/svg" xmlns:xlink="http://www.w3.org/1999/xlink">
    <!-- Generator: Sketch 51.2 (57519) - http://www.bohemiancoding.com/sketch -->
    <title>STIX/black/sighting</title>
    <desc>Created with Sketch.</desc>
    <defs></defs>
    <g id="STIX/black/sighting" stroke="none" stroke-width="1" fill="none" fill-rule="evenodd">
        <path d="M36.791,32.3666 C32.934,32.3666 29.813,29.2326 29.813,25.3896 C29.813,21.5466 32.934,18.4006 36.791,18.4006 C40.634,18.4006 43.78,21.5466 43.78,25.3896 C43.78,29.2576 40.634,32.3666 36.791,32.3666 M23.913,19.9186 C23.192,19.9186 22.519,20.0776 21.881,20.3456 L22.249,15.7566 L22.274,15.6716 C22.274,15.1936 22.444,14.7896 22.763,14.4966 C23.032,14.2026 23.474,13.9936 23.913,13.9936 C24.378,13.9936 24.795,14.2026 25.112,14.4966 C25.407,14.7896 25.59,15.1936 25.59,15.6716 L25.59,15.7456 L25.615,15.9156 L25.615,15.9646 C25.701,17.4096 25.86,18.9016 25.971,20.3456 C25.347,20.0776 24.648,19.9186 23.913,19.9186 M25.187,26.3816 L25.162,26.3816 L25.138,26.4056 C24.819,26.6996 24.403,26.9076 23.913,26.9076 C23.448,26.9076 22.997,26.6996 22.678,26.3816 C22.372,26.0636 22.175,25.6106 22.175,25.1456 C22.175,24.6426 22.358,24.2146 22.678,23.8976 C22.997,23.5786 23.448,23.3826 23.913,23.3826 C24.416,23.3826 24.844,23.5786 25.187,23.8976 C25.48,24.2146 25.676,24.6426 25.676,25.1456 C25.676,25.6106 25.48,26.0636 25.187,26.3816 M11.013,32.3666 C7.156,32.3666 4.036,29.2326 4.036,25.3896 C4.036,21.5466 7.156,18.4006 11.013,18.4006 C14.88,18.4006 18.001,21.5466 18.001,25.3896 C18.001,29.2576 14.856,32.3666 11.013,32.3666 M46.362,22.4286 C46.264,22.1586 46.179,21.9126 46.094,21.6446 C45.591,20.4566 44.893,19.3806 44.037,18.4626 L37.574,11.3876 L37.525,11.3506 C36.889,10.6036 36.117,10.0146 35.261,9.6246 L35.176,9.5886 C34.318,9.2086 33.388,9.0006 32.384,9.0006 C30.523,9.0006 28.834,9.7466 27.599,10.9956 C27.383,11.1956 27.187,11.4206 27.003,11.6596 C26.669,10.3016 25.451,9.2906 23.988,9.2906 C22.461,9.2906 21.195,10.3946 20.933,11.8466 C20.716,11.5396 20.474,11.2526 20.218,10.9956 C18.969,9.7466 17.279,9.0006 15.42,9.0006 C14.428,9.0006 13.498,9.2086 12.641,9.5886 L12.556,9.6246 C11.674,10.0146 10.902,10.6036 10.277,11.3506 L10.254,11.3876 L3.791,18.4626 C2.909,19.3806 2.2,20.4566 1.734,21.6446 C1.527,22.1336 1.391,22.6116 1.27,23.1016 L1.257,23.1246 C1.098,23.8476 1,24.6066 1,25.3896 C1,28.1436 2.126,30.6536 3.938,32.4646 C5.749,34.2636 8.259,35.4016 11.013,35.4016 C13.608,35.4016 15.97,34.3986 17.745,32.7946 C18.895,31.7416 19.801,30.4316 20.364,28.9396 C21.319,29.8206 22.543,30.3606 23.913,30.3606 C25.271,30.3606 26.52,29.8206 27.438,28.9756 C28.015,30.4456 28.908,31.7416 30.046,32.7946 C31.834,34.3986 34.195,35.4016 36.791,35.4016 C39.557,35.4016 42.054,34.2766 43.852,32.4646 L43.865,32.4646 C45.506,30.8116 46.582,28.6206 46.767,26.1606 L46.777,26.1606 C46.852,24.8636 46.718,23.6516 46.362,22.4286" id="Page-1" fill="#231F20"></path>
    </g>
</svg>