<?xml version="1.0" encoding="UTF-8"?>
<svg width="48px" height="45px" viewBox="0 0 48 45" version="1.1" xmlns="http://www.w3.org/2000/svg" xmlns:xlink="http://www.w3.org/1999/xlink">
    <!-- Generator: Sketch 51.2 (57519) - http://www.bohemiancoding.com/sketch -->
    <title>STIX/black/threat actor</title>
    <desc>Created with Sketch.</desc>
    <defs></defs>
    <g id="STIX/black/threat-actor" stroke="none" stroke-width="1" fill="none" fill-rule="evenodd">
        <g id="Page-1" transform="translate(8.000000, 7.000000)" fill="#231F20">
            <path d="M15.9999,14.587 C20.0169,14.587 23.2709,11.334 23.2709,7.316 C23.2709,3.3 20.0169,0.046 15.9999,0.046 C11.9829,0.046 8.7289,3.3 8.7289,7.316 C8.7289,11.334 11.9829,14.587 15.9999,14.587" id="Fill-1"></path>
            <path d="M21.1942,27.4464 L19.1052,29.5354 L16.0002,26.4304 L12.8942,29.5354 L10.8042,27.4464 L13.9102,24.3414 L10.8042,21.2354 L12.8942,19.1464 L16.0002,22.2514 L19.1052,19.1464 L21.1942,21.2354 L18.0892,24.3414 L21.1942,27.4464 Z M16.0002,16.0454 C10.6752,16.0454 0.0472,18.7174 0.0472,24.0224 L0.0472,31.9534 L31.9542,31.9534 L31.9542,24.0224 C31.9542,18.7174 21.3242,16.0454 16.0002,16.0454 Z" id="Fill-3"></path>
        </g>
    </g>
</svg>