<?xml version="1.0" encoding="UTF-8"?>
<svg width="48px" height="45px" viewBox="0 0 48 45" version="1.1" xmlns="http://www.w3.org/2000/svg" xmlns:xlink="http://www.w3.org/1999/xlink">
    <!-- Generator: Sketch 51.2 (57519) - http://www.bohemiancoding.com/sketch -->
    <title>STIX/black/tool</title>
    <desc>Created with Sketch.</desc>
    <defs>
        <polygon id="path-1" points="0 0.0004 30.7877305 0.0004 30.7877305 32.00565 0 32.00565"></polygon>
    </defs>
    <g id="STIX/black/tool" stroke="none" stroke-width="1" fill="none" fill-rule="evenodd">
        <g id="Page-1" transform="translate(9.000000, 6.000000)">
            <mask id="mask-2" fill="white">
                <use xlink:href="#path-1"></use>
            </mask>
            <g id="Clip-2"></g>
            <path d="M6.255,28.3644 C5.555,29.0644 4.349,29.0644 3.649,28.3644 C2.947,27.6254 2.947,26.4574 3.649,25.7574 C4.349,25.0574 5.555,25.0574 6.294,25.7574 C6.994,26.4574 6.994,27.6644 6.255,28.3644 M30.023,11.4384 L24.86,11.4384 L22.958,8.1234 L24.86,4.8634 L30.023,4.8634 C30.186,4.8634 30.349,4.8094 30.457,4.7004 C30.783,4.4834 30.892,3.9934 30.675,3.5594 C30.566,3.3964 30.402,3.1784 30.239,2.9614 C30.076,2.7444 29.859,2.5274 29.696,2.3644 C26.545,-0.7876 21.328,-0.7876 18.177,2.3644 C17.198,3.3424 16.492,4.5914 16.111,5.8414 C15.785,6.9824 15.677,8.2324 15.895,9.4274 L1.386,23.8824 C-0.462,25.7294 -0.462,28.7724 1.386,30.6204 C3.234,32.4674 6.276,32.4674 8.178,30.6204 L22.632,16.1654 C23.827,16.3834 25.077,16.2744 26.219,15.9484 C27.469,15.5684 28.664,14.8624 29.696,13.8834 C30.076,13.5034 30.402,13.0684 30.675,12.6884 C30.783,12.5794 30.783,12.4164 30.783,12.2534 C30.783,11.7644 30.457,11.4384 30.023,11.4384" id="Fill-1" fill="#231F20" mask="url(#mask-2)"></path>
        </g>
    </g>
</svg>