<svg version="1.1" xmlns="http://www.w3.org/2000/svg" xmlns:xlink="http://www.w3.org/1999/xlink" xml:space="preserve">

<symbol id="attack-pattern" viewBox="0 0 30.2 62">
    <path d="M30.1,10.7c0.4-3-1.3-8.1-5.5-7.9c-2.8,0.1-4,1.1-5-0.1c-1.2-1.5-2.8-2.9-3.4-2.6
        c-0.6,0.3-0.8,4.7-0.8,4.7s-6.7,2.1-7.4,5.8C7.6,12.5,0,15,0,15s0.6,5.9,1.4,6.1c0.8,0.2,1.8,0.1,1.8,0.1l-0.7,1.4L5,22.7
        c0,0,1.7-3.1,3-2.8c2.6,0.6,5.4-0.7,5.4-0.7S-6.1,33.2,7.1,46.3c0.4,2.7,0.6,4,0.6,4s-4.2,1.8-4.6,3.8c-0.4,2,1.1,4.1,1.1,4.1H1.5
        V62h28.3v-3.8h-3.1c0,0,1.6-2.1,1-4.1c-0.7-2.3-4.4-3.7-4.4-3.7l0.1-4.6c0,0,3.1-0.6,4.3-1.6c-2.3-0.6-2.9-10.9-2.6-14.9
        C25.3,24.9,29.6,14.2,30.1,10.7z"/>
</symbol>

<symbol id="indicator" viewBox="0 0 61.4 63.1">
    <path d="M40.7,11c0.8,2,1.3,5.4,1.3,7.8c0,6.5-1.8,12-8.8,15.9V63h12V11H40.7z M61.4,63h-12V27.5h12V63z
        M28.6,63.1h-12V42.6h12V63.1z M0.5,36.6c-0.7,0.6-0.7,1.7,0,2.3c0.6,0.6,1.7,0.6,2.3,0l7.1-7.1c1.4,1.2,2.9,2.1,4.6,2.8
        c2.1,0.9,4.5,1.4,6.9,1.4c2.4,0,4.8-0.5,6.9-1.4c2.2-0.9,4.2-2.3,5.8-3.9h0c1.6-1.7,3-3.7,3.9-5.8l0-0.1c0.8-2.1,1.3-4.4,1.3-6.8
        c0-2.4-0.5-4.8-1.4-6.9c-0.9-2.2-2.3-4.2-3.9-5.9C31,2,26.5,0,21.5,0c-2.4,0-4.8,0.4-6.9,1.3h0c-2.2,0.9-4.2,2.3-5.8,3.9L8.7,5.4
        C7.1,7,5.7,8.9,4.8,11.1l0,0.1c-0.9,2.1-1.3,4.4-1.3,6.8c0,2.4,0.5,4.8,1.4,6.9c0.7,1.7,1.7,3.2,2.8,4.6L0.5,36.6L0.5,36.6z
        M11.1,28.4c-1.4-1.4-2.5-3-3.2-4.8C7.2,21.9,6.8,20,6.8,18c0-2,0.4-3.8,1.1-5.6l0-0.1C8.6,10.6,9.7,9,11,7.7l0.1-0.1
        c1.4-1.3,3-2.5,4.8-3.2l0,0c1.7-0.7,3.7-1.1,5.6-1.1c4.1,0,7.7,1.6,10.4,4.3c1.4,1.4,2.5,3,3.2,4.8c0.7,1.7,1.1,3.6,1.1,5.6
        c0,2-0.4,3.8-1.1,5.5l0,0.1c-0.7,1.8-1.8,3.4-3.2,4.8l0,0c-1.4,1.3-3,2.4-4.8,3.2c-1.7,0.7-3.6,1.1-5.6,1.1c-2,0-3.9-0.4-5.6-1.1
        C14.1,30.8,12.5,29.7,11.1,28.4L11.1,28.4L11.1,28.4L11.1,28.4L11.1,28.4z M10.8,17c-0.6,0-1,0.4-1,1c0,1.5,0.3,3,0.9,4.4l0,0.1
        c0.6,1.3,1.4,2.6,2.5,3.7c1.1,1.1,2.4,2,3.8,2.5c1.4,0.6,3,0.9,4.5,0.9c0.6,0,1-0.4,1-1c0-0.5-0.4-1-1-1c-1.3,0-2.5-0.2-3.7-0.7
        c-1.1-0.5-2.2-1.2-3.1-2.1c-0.9-0.9-1.6-2-2.1-3.1l0,0c-0.5-1.2-0.7-2.4-0.7-3.7C11.8,17.4,11.4,17,10.8,17L10.8,17L10.8,17z"/>
</symbol>

<symbol id="threat-actor" viewBox="0 0 100 100">
    <path d="M28.6,29.2c0-0.4,9.7-1.5,9.7-1.5s5.9-11.4,8.3-11.9c1.7-0.4,3.3,1,3.8,1c0.7-0.1,2.3-1.6,3.8-0.5
        c1.5,1,6.4,11.6,6.4,11.6s10,0.7,9.7,1.3C70,29.8,54.8,39,50,39.3C45.2,39.6,28.6,29.6,28.6,29.2z M68.2,53.7
        c-1.9-1.3-6.3-2.2-6.3-2.2l7.9-6.4l-7.9-7.8l-0.1,0.1c-0.6,6.7-3.3,18-12,18c-9.1,0-11.2-11.4-12.1-18.2l0,0L30,45l8,6.5
        c0,0-4.4,0.9-6.3,2.2C29,55.5,24,65.7,24.1,69c0,1.7,1.9,5.9,6.4,5.9c0.8,0,38.4,0,39.2,0c4.5-0.1,6.2-4.3,6.2-6
        C75.9,65.6,70.9,55.5,68.2,53.7z"/>
</symbol>

<symbol id="course-of-action" viewBox="0 0 59.8 55.3">
    <path d="M52,8.5H40.7v-2c0-1.8-0.7-3.4-1.9-4.6C37.5,0.7,35.9,0,34.1,0h-8.4c-1.8,0-3.5,0.7-4.6,1.9
        c-1.2,1.2-1.9,2.8-1.9,4.6v2H7.8C3.5,8.5,0,12.1,0,16.4v31.2c0,4.3,3.5,7.8,7.8,7.8H52c4.3,0,7.8-3.5,7.8-7.8V16.4
        C59.8,12.1,56.3,8.5,52,8.5z M23.7,6.8c0-0.8,0.3-1.6,0.9-2.1v0c0.5-0.5,1.3-0.9,2.1-0.9h6.6c0.8,0,1.5,0.3,2.1,0.8
        c0.5,0.5,0.9,1.3,0.9,2.1v1.6H23.7V6.8z M44.2,36c0,0.8-0.6,1.4-1.4,1.4h-7.4v7.4c0,0.8-0.6,1.4-1.4,1.4h-8.2
        c-0.8,0-1.4-0.6-1.4-1.4v-7.4H17c-0.8,0-1.4-0.6-1.4-1.4v-8.3c0-0.7,0.6-1.4,1.4-1.4h7.4V19c0-0.8,0.6-1.4,1.4-1.4H34
        c0.8,0,1.4,0.6,1.4,1.4v7.4h7.4c0.7,0,1.4,0.6,1.4,1.4V36z"/>
</symbol>

<symbol id="circle" viewBox="0 0 32 32">
    <circle cx="32" cy="32" r="32"/>
</symbol>

</svg>